<svg width="112" height="67" viewBox="0 0 112 67" fill="none" xmlns="http://www.w3.org/2000/svg">
<g id="Logo">
<g id="grants">
<path d="M0 62.1445C0.311168 64.2338 2.31153 66.1008 5.31208 66.1008C9.42395 66.1008 11.0465 63.3669 11.0465 60.3664V50.6091H8.2015V51.8982C7.82365 51.1647 6.82347 50.409 5.08982 50.409C2.08927 50.409 0 52.8539 0 55.7433C0 58.8106 2.17818 61.0554 5.08982 61.0554C6.66789 61.0554 7.6903 60.3664 8.13482 59.6552V60.4553C8.13482 62.5668 7.09019 63.5003 5.22318 63.5003C3.82292 63.5003 2.86719 62.6335 2.66715 61.4333L0 62.1445ZM5.60103 58.5216C4.06741 58.5216 2.97832 57.4548 2.97832 55.7433C2.97832 54.0541 4.13409 52.9873 5.60103 52.9873C7.02351 52.9873 8.17927 54.0541 8.17927 55.7433C8.17927 57.4325 7.11241 58.5216 5.60103 58.5216Z" fill="#6966FF"/>
<path d="M17.0146 50.6091H14.0585V61.5444H17.0146V52.6094C17.0813 53.6318 17.9258 54.4098 18.9927 54.4098C20.104 54.4098 20.9708 53.5429 20.9708 52.4316C20.9708 51.3203 20.104 50.4535 18.9927 50.4535C17.9258 50.4535 17.0813 51.2536 17.0146 52.2983V50.6091Z" fill="#6966FF"/>
<path d="M22.0961 58.5661C22.0961 60.2775 23.5185 61.8556 25.8523 61.8556C27.4748 61.8556 28.5195 61.0999 29.0751 60.233C29.0751 60.6553 29.1196 61.2554 29.1862 61.5444H31.8979C31.8312 61.1665 31.7645 60.3886 31.7645 59.8107V54.432C31.7645 52.2316 30.4754 50.2757 27.0081 50.2757C24.0742 50.2757 22.4961 52.1649 22.3183 53.8763L24.941 54.432C25.0299 53.4763 25.7412 52.6539 27.0303 52.6539C28.275 52.6539 28.8751 53.2984 28.8751 54.0764C28.8751 54.4542 28.675 54.7654 28.0527 54.8543L25.3633 55.2544C23.5408 55.5211 22.0961 56.6102 22.0961 58.5661ZM26.4746 59.6552C25.5189 59.6552 25.0522 59.0328 25.0522 58.3883C25.0522 57.5437 25.6523 57.1214 26.408 57.0102L28.8751 56.6324V57.1214C28.8751 59.055 27.7193 59.6552 26.4746 59.6552Z" fill="#6966FF"/>
<path d="M37.6564 55.2544C37.6564 53.9875 38.4121 52.9873 39.7012 52.9873C41.1237 52.9873 41.7238 53.943 41.7238 55.1654V61.5444H44.6799V54.6542C44.6799 52.2538 43.4352 50.3201 40.7236 50.3201C39.5456 50.3201 38.2342 50.8313 37.5675 51.9649V50.6091H34.7003V61.5444H37.6564V55.2544Z" fill="#6966FF"/>
<path d="M51.4384 47.3418H48.7712V48.8754C48.7712 49.8534 48.2378 50.6091 47.0821 50.6091H46.5264V53.2318H48.5045V58.3216C48.5045 60.4331 49.8381 61.7 51.9718 61.7C52.8387 61.7 53.3721 61.5444 53.6388 61.4333V58.9884C53.4832 59.0328 53.0831 59.0773 52.7275 59.0773C51.8829 59.0773 51.4384 58.7661 51.4384 57.8104V53.2318H53.6388V50.6091H51.4384V47.3418Z" fill="#6966FF"/>
<path d="M55.2815 58.4994C55.4148 59.7441 56.5484 61.8778 59.8379 61.8778C62.705 61.8778 64.0831 60.0552 64.0831 58.2771C64.0831 56.6768 62.994 55.3655 60.838 54.921L59.2822 54.5876C58.6821 54.4764 58.282 54.143 58.282 53.6096C58.282 52.9873 58.9044 52.5205 59.6823 52.5205C60.9269 52.5205 61.3937 53.3429 61.4826 53.9875L63.9497 53.4318C63.8164 52.2538 62.7717 50.2757 59.66 50.2757C57.3041 50.2757 55.5704 51.8982 55.5704 53.8541C55.5704 55.3877 56.5261 56.6546 58.6376 57.1214L60.0823 57.4548C60.9269 57.6326 61.2603 58.0326 61.2603 58.5216C61.2603 59.0995 60.7936 59.6107 59.8156 59.6107C58.5265 59.6107 57.8819 58.8106 57.8153 57.9437L55.2815 58.4994Z" fill="#6966FF"/>
</g>
<g id="Group">
<path id="Vector" fill-rule="evenodd" clip-rule="evenodd" d="M86.221 35.2363C86.425 35.2363 86.5904 35.4017 86.5904 35.6058L86.5904 35.6307C86.5904 35.8347 86.425 36.0001 86.221 36.0001C86.017 36.0001 85.8516 35.8347 85.8516 35.6307L85.8516 35.6058C85.8516 35.4017 86.017 35.2363 86.221 35.2363ZM86.221 39.2536C86.425 39.2536 86.5904 39.419 86.5904 39.6231L86.5904 39.673C86.5904 39.877 86.425 40.0424 86.221 40.0424C86.017 40.0424 85.8516 39.877 85.8516 39.673L85.8516 39.6231C85.8516 39.419 86.017 39.2536 86.221 39.2536ZM86.221 43.2959C86.425 43.2959 86.5904 43.4613 86.5904 43.6653L86.5904 43.7152C86.5904 43.9193 86.425 44.0847 86.221 44.0847C86.017 44.0847 85.8516 43.9193 85.8516 43.7152L85.8516 43.6653C85.8516 43.4613 86.017 43.2959 86.221 43.2959ZM86.221 47.3382C86.425 47.3382 86.5904 47.5036 86.5904 47.7076L86.5904 47.7575C86.5904 47.9615 86.425 48.1269 86.221 48.1269C86.017 48.1269 85.8516 47.9615 85.8516 47.7575L85.8516 47.7076C85.8516 47.5036 86.017 47.3382 86.221 47.3382ZM86.221 51.3805C86.425 51.3805 86.5904 51.5459 86.5904 51.7499L86.5904 51.7748C86.5904 51.9789 86.425 52.1443 86.221 52.1443C86.017 52.1443 85.8516 51.9789 85.8516 51.7748L85.8516 51.7499C85.8516 51.5459 86.017 51.3805 86.221 51.3805Z" fill="#55555E"/>
<path id="Vector_2" fill-rule="evenodd" clip-rule="evenodd" d="M86.221 5.20703C86.425 5.20703 86.5904 5.37243 86.5904 5.57646L86.5904 5.59984C86.5904 5.80387 86.425 5.96926 86.221 5.96926C86.017 5.96926 85.8516 5.80387 85.8516 5.59984L85.8516 5.57646C85.8516 5.37243 86.017 5.20703 86.221 5.20703ZM86.221 8.97154C86.425 8.97154 86.5904 9.13694 86.5904 9.34097L86.5904 9.38773C86.5904 9.59176 86.425 9.75716 86.221 9.75716C86.017 9.75716 85.8516 9.59176 85.8516 9.38773L85.8516 9.34097C85.8516 9.13694 86.017 8.97154 86.221 8.97154ZM86.221 12.7594C86.425 12.7594 86.5904 12.9248 86.5904 13.1289L86.5904 13.1756C86.5904 13.3797 86.425 13.545 86.221 13.545C86.017 13.545 85.8516 13.3797 85.8516 13.1756L85.8516 13.1289C85.8516 12.9248 86.017 12.7594 86.221 12.7594ZM86.221 16.5473C86.425 16.5473 86.5904 16.7127 86.5904 16.9168L86.5904 16.9401C86.5904 17.1442 86.425 17.3096 86.221 17.3096C86.017 17.3096 85.8516 17.1442 85.8516 16.9401L85.8516 16.9168C85.8516 16.7127 86.017 16.5473 86.221 16.5473Z" fill="#55555E"/>
<path id="Vector_3" fill-rule="evenodd" clip-rule="evenodd" d="M111.566 26.7972C111.566 27.0012 111.401 27.1666 111.197 27.1666L111.175 27.1666C110.971 27.1666 110.805 27.0012 110.805 26.7972C110.805 26.5931 110.971 26.4277 111.175 26.4277L111.197 26.4277C111.401 26.4277 111.566 26.5931 111.566 26.7972ZM107.968 26.7972C107.968 27.0012 107.802 27.1666 107.598 27.1666L107.554 27.1666C107.35 27.1666 107.184 27.0012 107.184 26.7972C107.184 26.5931 107.35 26.4277 107.554 26.4277L107.598 26.4277C107.802 26.4277 107.968 26.5931 107.968 26.7972ZM104.347 26.7972C104.347 27.0012 104.181 27.1666 103.977 27.1666L103.933 27.1666C103.729 27.1666 103.563 27.0012 103.563 26.7972C103.563 26.5931 103.729 26.4277 103.933 26.4277L103.977 26.4277C104.181 26.4277 104.347 26.5931 104.347 26.7972ZM100.726 26.7972C100.726 27.0012 100.561 27.1666 100.357 27.1666L100.312 27.1666C100.108 27.1666 99.9424 27.0012 99.9424 26.7972C99.9424 26.5931 100.108 26.4277 100.312 26.4277L100.357 26.4277C100.561 26.4277 100.726 26.5931 100.726 26.7972ZM97.105 26.7972C97.105 27.0012 96.9396 27.1666 96.7356 27.1666L96.6909 27.1666C96.4868 27.1666 96.3214 27.0012 96.3214 26.7972C96.3214 26.5931 96.4868 26.4277 96.6909 26.4277L96.7356 26.4277C96.9396 26.4277 97.105 26.5931 97.105 26.7972ZM93.4841 26.7972C93.4841 27.0012 93.3187 27.1666 93.1146 27.1666L93.0923 27.1666C92.8883 27.1666 92.7229 27.0012 92.7229 26.7972C92.7229 26.5931 92.8883 26.4277 93.0923 26.4277L93.1146 26.4277C93.3187 26.4277 93.4841 26.5931 93.4841 26.7972Z" fill="#55555E"/>
<path id="Vector_4" fill-rule="evenodd" clip-rule="evenodd" d="M79.875 26.7972C79.875 27.0012 79.7096 27.1666 79.5056 27.1666H79.483C79.279 27.1666 79.1136 27.0012 79.1136 26.7972C79.1136 26.5931 79.279 26.4277 79.483 26.4277H79.5056C79.7096 26.4277 79.875 26.5931 79.875 26.7972ZM76.245 26.7972C76.245 27.0012 76.0796 27.1666 75.8755 27.1666H75.8304C75.6264 27.1666 75.461 27.0012 75.461 26.7972C75.461 26.5931 75.6264 26.4277 75.8304 26.4277H75.8755C76.0796 26.4277 76.245 26.5931 76.245 26.7972ZM72.5924 26.7972C72.5924 27.0012 72.427 27.1666 72.223 27.1666H72.1779C71.9738 27.1666 71.8084 27.0012 71.8084 26.7972C71.8084 26.5931 71.9738 26.4277 72.1779 26.4277H72.223C72.427 26.4277 72.5924 26.5931 72.5924 26.7972Z" fill="#55555E"/>
</g>
<path id="Vector_5" fill-rule="evenodd" clip-rule="evenodd" d="M86.1964 1.45117H86.2458C86.4498 1.45137 86.615 1.61692 86.6148 1.82095C86.6146 2.02498 86.4491 2.19022 86.2451 2.19002H86.1971C85.9931 2.19022 85.8275 2.02498 85.8273 1.82095C85.8271 1.61692 85.9923 1.45137 86.1964 1.45117ZM82.7047 2.06362C82.7362 2.2652 82.5983 2.45414 82.3967 2.48561L82.3494 2.49304C82.1479 2.52491 81.9587 2.38738 81.9268 2.18586C81.8949 1.98434 82.0325 1.79513 82.234 1.76326L82.2827 1.75561C82.4843 1.72413 82.6732 1.86203 82.7047 2.06362ZM89.7375 2.06362C89.7689 1.86203 89.9579 1.72413 90.1595 1.75561L90.2081 1.76326C90.4097 1.79514 90.5472 1.98434 90.5153 2.18586C90.4835 2.38738 90.2942 2.52491 90.0927 2.49304L90.0455 2.48561C89.8439 2.45414 89.706 2.2652 89.7375 2.06362ZM93.5613 2.91462C93.6241 2.7205 93.8324 2.61407 94.0265 2.67689L94.0733 2.69209C94.2673 2.75529 94.3733 2.96379 94.3101 3.15778C94.2469 3.35177 94.0384 3.45779 93.8444 3.39459L93.799 3.37985C93.6049 3.31702 93.4984 3.10873 93.5613 2.91462ZM78.8809 2.91462C78.9437 3.10873 78.8372 3.31702 78.6431 3.37985L78.5977 3.39459C78.4037 3.45779 78.1952 3.35177 78.132 3.15778C78.0688 2.96379 78.1749 2.75529 78.3688 2.69209L78.4156 2.6769C78.6097 2.61407 78.818 2.7205 78.8809 2.91462ZM97.2029 4.35734C97.2955 4.17554 97.5179 4.10322 97.6997 4.19582L97.7435 4.21815C97.9251 4.3111 97.997 4.53369 97.904 4.71531C97.8111 4.89694 97.5885 4.96882 97.4069 4.87587L97.3644 4.85419C97.1826 4.76159 97.1103 4.53915 97.2029 4.35734ZM75.2393 4.35734C75.3318 4.53915 75.2595 4.76159 75.0777 4.85419L75.0353 4.87587C74.8536 4.96882 74.631 4.89694 74.5381 4.71532C74.4451 4.53369 74.517 4.3111 74.6986 4.21815L74.7424 4.19582C74.9242 4.10322 75.1467 4.17554 75.2393 4.35734ZM71.8695 6.35399C71.9894 6.51907 71.9528 6.75009 71.7877 6.86999L71.7492 6.89804C71.5843 7.01826 71.3532 6.98208 71.233 6.81723C71.1128 6.65238 71.149 6.42129 71.3138 6.30107L71.3535 6.27218C71.5186 6.15228 71.7496 6.18891 71.8695 6.35399ZM100.573 6.35399C100.692 6.18891 100.924 6.15228 101.089 6.27218L101.128 6.30107C101.293 6.42129 101.329 6.65238 101.209 6.81723C101.089 6.98208 100.858 7.01826 100.693 6.89804L100.654 6.86999C100.489 6.75009 100.453 6.51907 100.573 6.35399ZM68.8526 8.85215C68.9968 8.99656 68.9965 9.23046 68.8521 9.37459L68.8184 9.40832C68.6743 9.55272 68.4404 9.55295 68.296 9.40882C68.1515 9.26469 68.1513 9.03078 68.2955 8.88637L68.3302 8.85165C68.4746 8.70752 68.7085 8.70774 68.8526 8.85215ZM103.59 8.85215C103.734 8.70774 103.968 8.70752 104.112 8.85165L104.147 8.88637C104.291 9.03078 104.291 9.26469 104.146 9.40882C104.002 9.55295 103.768 9.55272 103.624 9.40832L103.59 9.37459C103.446 9.23046 103.445 8.99656 103.59 8.85215ZM106.181 11.7892C106.346 11.669 106.577 11.7052 106.697 11.87L106.726 11.9097C106.846 12.0748 106.809 12.3058 106.644 12.4257C106.479 12.5456 106.248 12.509 106.128 12.3439L106.1 12.3054C105.98 12.1405 106.016 11.9094 106.181 11.7892ZM108.283 15.0943C108.465 15.0013 108.687 15.0732 108.78 15.2548L108.803 15.2986C108.895 15.4804 108.823 15.7028 108.641 15.7954C108.459 15.888 108.237 15.8157 108.144 15.6339L108.122 15.5914C108.03 15.4098 108.101 15.1872 108.283 15.0943ZM109.841 18.6882C110.035 18.625 110.243 18.731 110.306 18.925L110.321 18.9718C110.384 19.1659 110.278 19.3742 110.084 19.437C109.89 19.4999 109.681 19.3934 109.618 19.1993L109.604 19.1539C109.541 18.9599 109.647 18.7514 109.841 18.6882ZM110.812 22.483C111.014 22.4511 111.203 22.5887 111.235 22.7902L111.243 22.8389C111.274 23.0405 111.136 23.2294 110.935 23.2609C110.733 23.2924 110.544 23.1545 110.513 22.9529L110.505 22.9056C110.473 22.7041 110.611 22.5149 110.812 22.483ZM111.177 26.3835C111.381 26.3833 111.547 26.5485 111.547 26.7526V26.802C111.547 27.006 111.381 27.1712 111.177 27.171C110.973 27.1708 110.808 27.0053 110.808 26.8012V26.7533C110.808 26.5492 110.973 26.3837 111.177 26.3835ZM110.935 30.2936C111.136 30.3251 111.274 30.5141 111.243 30.7156L111.235 30.7643C111.203 30.9659 111.014 31.1034 110.812 31.0715C110.611 31.0396 110.473 30.8504 110.505 30.6489L110.513 30.6017C110.544 30.4001 110.733 30.2622 110.935 30.2936ZM110.084 34.1175C110.278 34.1803 110.384 34.3886 110.321 34.5827L110.306 34.6295C110.243 34.8235 110.035 34.9295 109.841 34.8663C109.647 34.8031 109.541 34.5946 109.604 34.4006L109.618 34.3552C109.681 34.1611 109.89 34.0546 110.084 34.1175ZM108.641 37.7591C108.823 37.8517 108.895 38.0741 108.803 38.2559L108.78 38.2997C108.687 38.4813 108.465 38.5532 108.283 38.4602C108.101 38.3673 108.03 38.1447 108.122 37.9631L108.144 37.9206C108.237 37.7388 108.459 37.6665 108.641 37.7591ZM106.644 41.1288C106.809 41.2487 106.846 41.4797 106.726 41.6448L106.697 41.6845C106.577 41.8493 106.346 41.8855 106.181 41.7653C106.016 41.6451 105.98 41.414 106.1 41.2491L106.128 41.2106C106.248 41.0455 106.479 41.0089 106.644 41.1288ZM68.296 44.1457C68.4404 44.0016 68.6743 44.0018 68.8184 44.1462L68.8521 44.1799C68.9965 44.3241 68.9968 44.558 68.8526 44.7024C68.7085 44.8468 68.4746 44.847 68.3302 44.7029L68.2955 44.6681C68.1513 44.5237 68.1515 44.2898 68.296 44.1457ZM104.146 44.1457C104.291 44.2898 104.291 44.5237 104.147 44.6681L104.112 44.7029C103.968 44.847 103.734 44.8468 103.59 44.7024C103.445 44.558 103.446 44.3241 103.59 44.1799L103.624 44.1462C103.768 44.0018 104.002 44.0016 104.146 44.1457ZM71.233 46.7373C71.3532 46.5724 71.5843 46.5363 71.7492 46.6565L71.7877 46.6845C71.9528 46.8044 71.9894 47.0354 71.8695 47.2005C71.7496 47.3656 71.5186 47.4022 71.3535 47.2823L71.3138 47.2534C71.149 47.1332 71.1128 46.9021 71.233 46.7373ZM101.209 46.7373C101.329 46.9021 101.293 47.1332 101.128 47.2534L101.089 47.2823C100.924 47.4022 100.692 47.3656 100.573 47.2005C100.453 47.0354 100.489 46.8044 100.654 46.6845L100.693 46.6565C100.858 46.5363 101.089 46.5724 101.209 46.7373ZM74.5381 48.8392C74.631 48.6576 74.8536 48.5857 75.0353 48.6786L75.0777 48.7003C75.2595 48.7929 75.3318 49.0154 75.2393 49.1972C75.1467 49.379 74.9242 49.4513 74.7424 49.3587L74.6987 49.3364C74.517 49.2434 74.4451 49.0208 74.5381 48.8392ZM97.904 48.8392C97.997 49.0208 97.9251 49.2434 97.7435 49.3364L97.6997 49.3587C97.5179 49.4513 97.2955 49.379 97.2029 49.1972C97.1103 49.0154 97.1826 48.7929 97.3644 48.7003L97.4069 48.6786C97.5885 48.5857 97.8111 48.6576 97.904 48.8392ZM78.132 50.3967C78.1952 50.2027 78.4037 50.0967 78.5977 50.1599L78.6431 50.1747C78.8372 50.2375 78.9437 50.4458 78.8809 50.6399C78.818 50.834 78.6097 50.9404 78.4156 50.8776L78.3688 50.8624C78.1749 50.7992 78.0688 50.5907 78.132 50.3967ZM94.3101 50.3967C94.3733 50.5907 94.2673 50.7992 94.0733 50.8624L94.0265 50.8776C93.8324 50.9404 93.6241 50.834 93.5613 50.6399C93.4985 50.4458 93.6049 50.2375 93.799 50.1747L93.8444 50.1599C94.0384 50.0967 94.2469 50.2027 94.3101 50.3967ZM81.9268 51.3687C81.9587 51.1671 82.1479 51.0296 82.3494 51.0615L82.3967 51.0689C82.5983 51.1004 82.7362 51.2893 82.7047 51.4909C82.6732 51.6925 82.4843 51.8304 82.2827 51.7989L82.234 51.7913C82.0325 51.7594 81.8949 51.5702 81.9268 51.3687ZM90.5153 51.3687C90.5472 51.5702 90.4097 51.7594 90.2081 51.7913L90.1595 51.7989C89.9579 51.8304 89.7689 51.6925 89.7375 51.4909C89.706 51.2893 89.8439 51.1004 90.0455 51.0689L90.0927 51.0615C90.2942 51.0296 90.4834 51.1671 90.5153 51.3687ZM85.8273 51.7336C85.8275 51.5295 85.993 51.3643 86.1971 51.3645H86.2451C86.4491 51.3643 86.6146 51.5295 86.6148 51.7336C86.615 51.9376 86.4498 52.1031 86.2458 52.1033H86.1964C85.9923 52.1031 85.8271 51.9376 85.8273 51.7336Z" fill="white"/>
<path id="Vector_6" d="M87.043 51.7337C87.043 52.1871 86.6754 52.5547 86.222 52.5547C85.7686 52.5547 85.4011 52.1871 85.4011 51.7337C85.4011 51.2804 85.7686 50.9128 86.222 50.9128C86.6754 50.9128 87.043 51.2804 87.043 51.7337Z" fill="#6966FF"/>
<path id="Vector_7" d="M111.18 27.5977C110.727 27.5977 110.359 27.2301 110.359 26.7767C110.359 26.3233 110.727 25.9558 111.18 25.9558C111.634 25.9558 112.001 26.3233 112.001 26.7767C112.001 27.2301 111.634 27.5977 111.18 27.5977Z" fill="#6966FF"/>
<path id="Vector_8" d="M87.043 1.81968C87.043 2.27308 86.6754 2.64062 86.222 2.64062C85.7686 2.64062 85.4011 2.27308 85.4011 1.81968C85.4011 1.36629 85.7686 0.998739 86.222 0.998739C86.6754 0.998739 87.043 1.36629 87.043 1.81968Z" fill="#6966FF"/>
<g id="Group_2">
<path id="Vector (Stroke) (Stroke)" fill-rule="evenodd" clip-rule="evenodd" d="M93.3934 11.3887H100.202L78.2813 42.0895H71.5859L93.3934 11.3887ZM85.3952 20.4352L78.9788 11.3887H72.1439L82.0475 25.3697L85.3952 20.4352ZM83.7167 20.4526L82.023 22.9491L74.811 12.7679H78.2661L83.7167 20.4526ZM74.2573 40.7103H77.5714L97.5224 12.7679H94.1054L74.2573 40.7103Z" fill="white"/>
<path id="Vector (Stroke) (Stroke)_2" fill-rule="evenodd" clip-rule="evenodd" d="M94.8183 40.6851C94.8645 40.7494 94.9389 40.7874 95.018 40.7874H98.203L90.636 30.0423C90.5378 29.9028 90.3309 29.9031 90.233 30.0429L88.8152 32.0684C88.7551 32.1541 88.7559 32.2685 88.8171 32.3534L94.8183 40.6851ZM87.0234 32.223L94.1857 42.1666H100.861L90.4307 27.3555L87.0234 32.223Z" fill="url(#paint0_linear_2352_30554)"/>
</g>
<path id="Union" fill-rule="evenodd" clip-rule="evenodd" d="M23.4077 11.3887H17.5557V20.5238C15.8656 19.6197 13.9253 19.1055 11.8619 19.1055C5.31076 19.1055 0 24.288 0 30.6808C0 37.0737 5.31076 42.2561 11.8619 42.2561C13.9253 42.2561 15.8656 41.742 17.5557 40.8379V41.9805H23.4077V11.3887ZM18.5177 30.6199C18.5177 34.2406 15.5098 37.1758 11.7994 37.1758C8.08904 37.1758 5.08118 34.2406 5.08118 30.6199C5.08118 26.9991 8.08904 24.0639 11.7994 24.0639C15.5098 24.0639 18.5177 26.9991 18.5177 30.6199ZM47.1188 11.3887L25.3583 41.9806H32.1803L53.9197 11.3887H47.1188ZM64.0924 11.3887H69.9444V41.9805H64.0924V40.8379C62.4023 41.742 60.462 42.2561 58.3986 42.2561C51.8474 42.2561 46.5367 37.0737 46.5367 30.6808C46.5367 24.288 51.8474 19.1055 58.3986 19.1055C60.462 19.1055 62.4023 19.6197 64.0924 20.5238V11.3887ZM58.3361 37.1758C62.0465 37.1758 65.0544 34.2406 65.0544 30.6199C65.0544 26.9991 62.0465 24.0639 58.3361 24.0639C54.6257 24.0639 51.6179 26.9991 51.6179 30.6199C51.6179 34.2406 54.6257 37.1758 58.3361 37.1758ZM39.0113 20.6762L32.184 11.3887H25.0781L35.2493 25.8663L39.0113 20.6762Z" fill="white"/>
</g>
<defs>
<linearGradient id="paint0_linear_2352_30554" x1="95.6897" y1="39.8354" x2="84.6571" y2="24.6765" gradientUnits="userSpaceOnUse">
<stop stop-color="#6966FF"/>
<stop offset="1" stop-color="#6966FF" stop-opacity="0.36"/>
</linearGradient>
</defs>
</svg>
