<svg width="60" height="60" viewBox="0 0 60 60" fill="none" xmlns="http://www.w3.org/2000/svg">
<path fill-rule="evenodd" clip-rule="evenodd" d="M38.2374 12.0527H46.1359L20.7058 47.669H12.9385L38.2374 12.0527ZM28.9586 22.5476L21.515 12.0527H13.5858L25.075 28.2722L28.9586 22.5476ZM27.0114 22.5679L25.0466 25.4641L16.6799 13.6527H20.6882L27.0114 22.5679ZM16.0376 46.069H19.8822L43.0275 13.6527H39.0635L16.0376 46.069Z" fill="white"/>
<path fill-rule="evenodd" clip-rule="evenodd" d="M39.973 46.157H43.8142L34.8015 33.359L32.807 36.2081L39.973 46.157ZM30.8447 36.2214L39.1536 47.757H46.8979L34.7975 30.5745L30.8447 36.2214Z" fill="url(#paint0_linear_3121_2938)"/>
<path fill-rule="evenodd" clip-rule="evenodd" d="M30.3471 5.30998C30.3471 5.07329 30.1552 4.88141 29.9185 4.88141C29.6818 4.88141 29.4899 5.07329 29.4899 5.30998V5.33711C29.4899 5.5738 29.6818 5.76568 29.9185 5.76568C30.1552 5.76568 30.3471 5.5738 30.3471 5.33711V5.30998ZM30.3471 9.67721C30.3471 9.44052 30.1552 9.24864 29.9185 9.24864C29.6818 9.24864 29.4899 9.44052 29.4899 9.67721V9.73146C29.4899 9.96816 29.6818 10.16 29.9185 10.16C30.1552 10.16 30.3471 9.96816 30.3471 9.73146V9.67721ZM30.3471 14.0716C30.3471 13.8349 30.1552 13.643 29.9185 13.643C29.6818 13.643 29.4899 13.8349 29.4899 14.0716V14.1258C29.4899 14.3625 29.6818 14.5544 29.9185 14.5544C30.1552 14.5544 30.3471 14.3625 30.3471 14.1258V14.0716ZM30.3471 18.4659C30.3471 18.2292 30.1552 18.0374 29.9185 18.0374C29.6818 18.0374 29.4899 18.2292 29.4899 18.4659V18.4931C29.4899 18.7297 29.6818 18.9216 29.9185 18.9216C30.1552 18.9216 30.3471 18.7297 30.3471 18.4931V18.4659ZM30.3471 40.1465C30.3471 39.9098 30.1552 39.7179 29.9185 39.7179C29.6818 39.7179 29.4899 39.9098 29.4899 40.1465V40.1754C29.4899 40.4121 29.6818 40.604 29.9185 40.604C30.1552 40.604 30.3471 40.4121 30.3471 40.1754V40.1465ZM30.3471 44.807C30.3471 44.5703 30.1552 44.3784 29.9185 44.3784C29.6818 44.3784 29.4899 44.5703 29.4899 44.807V44.8649C29.4899 45.1016 29.6818 45.2935 29.9185 45.2935C30.1552 45.2935 30.3471 45.1016 30.3471 44.8649V44.807ZM30.3471 49.4965C30.3471 49.2598 30.1552 49.0679 29.9185 49.0679C29.6818 49.0679 29.4899 49.2598 29.4899 49.4965V49.5543C29.4899 49.791 29.6818 49.9829 29.9185 49.9829C30.1552 49.9829 30.3471 49.791 30.3471 49.5543V49.4965ZM30.3471 54.1859C30.3471 53.9492 30.1552 53.7573 29.9185 53.7573C29.6818 53.7573 29.4899 53.9492 29.4899 54.1859V54.2438C29.4899 54.4805 29.6818 54.6724 29.9185 54.6724C30.1552 54.6724 30.3471 54.4805 30.3471 54.2438V54.1859ZM30.3471 58.8754C30.3471 58.6387 30.1552 58.4468 29.9185 58.4468C29.6818 58.4468 29.4899 58.6387 29.4899 58.8754V58.9043C29.4899 59.141 29.6818 59.3329 29.9185 59.3329C30.1552 59.3329 30.3471 59.141 30.3471 58.9043V58.8754ZM59.3231 29.9283C59.3231 30.165 59.1312 30.3569 58.8945 30.3569H58.8686C58.6319 30.3569 58.44 30.165 58.44 29.9283C58.44 29.6916 58.6319 29.4997 58.8686 29.4997H58.8945C59.1312 29.4997 59.3231 29.6916 59.3231 29.9283ZM55.1483 29.9283C55.1483 30.165 54.9565 30.3569 54.7198 30.3569H54.6679C54.4312 30.3569 54.2393 30.165 54.2393 29.9283C54.2393 29.6916 54.4312 29.4997 54.6679 29.4997H54.7198C54.9565 29.4997 55.1483 29.6916 55.1483 29.9283ZM50.9477 29.9283C50.9477 30.165 50.7558 30.3569 50.5191 30.3569H50.4672C50.2305 30.3569 50.0387 30.165 50.0387 29.9283C50.0387 29.6916 50.2305 29.4997 50.4672 29.4997H50.5191C50.7558 29.4997 50.9477 29.6916 50.9477 29.9283ZM46.747 29.9283C46.747 30.165 46.5551 30.3569 46.3184 30.3569H46.2666C46.0299 30.3569 45.838 30.165 45.838 29.9283C45.838 29.6916 46.0299 29.4997 46.2666 29.4997H46.3184C46.5551 29.4997 46.747 29.6916 46.747 29.9283ZM42.5463 29.9283C42.5463 30.165 42.3545 30.3569 42.1178 30.3569H42.0659C41.8292 30.3569 41.6373 30.165 41.6373 29.9283C41.6373 29.6916 41.8292 29.4997 42.0659 29.4997H42.1178C42.3545 29.4997 42.5463 29.6916 42.5463 29.9283ZM38.3457 29.9283C38.3457 30.165 38.1538 30.3569 37.9171 30.3569H37.8912C37.6545 30.3569 37.4626 30.165 37.4626 29.9283C37.4626 29.6916 37.6545 29.4997 37.8912 29.4997H37.9171C38.1538 29.4997 38.3457 29.6916 38.3457 29.9283ZM22.1292 30.3569C22.3659 30.3569 22.5577 30.165 22.5577 29.9283C22.5577 29.6916 22.3659 29.4997 22.1292 29.4997H22.103C21.8663 29.4997 21.6744 29.6916 21.6744 29.9283C21.6744 30.165 21.8663 30.3569 22.103 30.3569H22.1292ZM17.9179 30.3569C18.1546 30.3569 18.3465 30.165 18.3465 29.9283C18.3465 29.6916 18.1546 29.4997 17.9179 29.4997H17.8656C17.6289 29.4997 17.4371 29.6916 17.4371 29.9283C17.4371 30.165 17.6289 30.3569 17.8656 30.3569H17.9179ZM13.6806 30.3569C13.9172 30.3569 14.1091 30.165 14.1091 29.9283C14.1091 29.6916 13.9172 29.4997 13.6806 29.4997H13.6282C13.3915 29.4997 13.1997 29.6916 13.1997 29.9283C13.1997 30.165 13.3915 30.3569 13.6282 30.3569H13.6806ZM9.44317 30.3569C9.67986 30.3569 9.87174 30.165 9.87174 29.9283C9.87174 29.6916 9.67986 29.4997 9.44317 29.4997H9.39085C9.15416 29.4997 8.96228 29.6916 8.96228 29.9283C8.96228 30.165 9.15416 30.3569 9.39085 30.3569H9.44317ZM5.20578 30.3569C5.44248 30.3569 5.63436 30.165 5.63436 29.9283C5.63436 29.6916 5.44248 29.4997 5.20578 29.4997H5.15347C4.91678 29.4997 4.7249 29.6916 4.7249 29.9283C4.7249 30.165 4.91678 30.3569 5.15347 30.3569H5.20578ZM0.968401 30.3569C1.2051 30.3569 1.39697 30.165 1.39697 29.9283C1.39697 29.6916 1.2051 29.4997 0.968401 29.4997H0.942243C0.705549 29.4997 0.513672 29.6916 0.513672 29.9283C0.513672 30.165 0.705549 30.3569 0.942243 30.3569H0.968401Z" fill="#55555E"/>
<path fill-rule="evenodd" clip-rule="evenodd" d="M29.8894 0.523743H29.9467C30.1834 0.523969 30.3751 0.71603 30.3749 0.952723C30.3746 1.18942 30.1826 1.38111 29.9459 1.38089H29.8902C29.6535 1.38111 29.4615 1.18942 29.4612 0.952723C29.461 0.71603 29.6527 0.523969 29.8894 0.523743ZM25.8387 1.23424C25.8752 1.4681 25.7152 1.68729 25.4813 1.7238L25.4265 1.73242C25.1927 1.7694 24.9732 1.60985 24.9363 1.37606C24.8993 1.14227 25.0588 0.922776 25.2926 0.885802L25.3491 0.876925C25.583 0.840407 25.8021 1.00038 25.8387 1.23424ZM33.9974 1.23424C34.0339 1.00038 34.2531 0.840407 34.487 0.876925L34.5435 0.885802C34.7773 0.922776 34.9368 1.14227 34.8998 1.37606C34.8629 1.60985 34.6434 1.7694 34.4096 1.73242L34.3547 1.7238C34.1209 1.68729 33.9609 1.4681 33.9974 1.23424ZM38.4335 2.2215C38.5063 1.9963 38.748 1.87283 38.9732 1.94571L39.0275 1.96334C39.2525 2.03666 39.3755 2.27854 39.3022 2.50359C39.2289 2.72864 38.987 2.85164 38.7619 2.77831L38.7092 2.76121C38.4841 2.68833 38.3606 2.44669 38.4335 2.2215ZM21.4026 2.2215C21.4755 2.44669 21.352 2.68833 21.1268 2.76121L21.0742 2.77832C20.8491 2.85164 20.6072 2.72864 20.5339 2.50359C20.4606 2.27854 20.5836 2.03666 20.8086 1.96334L20.8629 1.94571C21.0881 1.87283 21.3297 1.9963 21.4026 2.2215ZM42.6581 3.89521C42.7655 3.68429 43.0236 3.6004 43.2345 3.70782L43.2853 3.73373C43.496 3.84157 43.5794 4.09979 43.4715 4.31049C43.3637 4.5212 43.1055 4.60459 42.8948 4.49676L42.8455 4.4716C42.6346 4.36418 42.5507 4.10612 42.6581 3.89521ZM17.178 3.89521C17.2854 4.10612 17.2015 4.36418 16.9906 4.4716L16.9413 4.49676C16.7306 4.60459 16.4724 4.5212 16.3646 4.3105C16.2567 4.09979 16.3401 3.84157 16.5508 3.73373L16.6016 3.70782C16.8125 3.6004 17.0706 3.68429 17.178 3.89521ZM13.2688 6.21153C13.4079 6.40304 13.3654 6.67105 13.1739 6.81014L13.1291 6.84269C12.9379 6.98215 12.6698 6.94018 12.5303 6.74893C12.3909 6.55769 12.4329 6.2896 12.6241 6.15014L12.6701 6.11662C12.8617 5.97753 13.1297 6.02002 13.2688 6.21153ZM46.5673 6.21153C46.7064 6.02002 46.9744 5.97753 47.1659 6.11662L47.212 6.15014C47.4032 6.2896 47.4452 6.55769 47.3058 6.74893C47.1663 6.94018 46.8982 6.98215 46.707 6.84269L46.6622 6.81014C46.4707 6.67105 46.4282 6.40304 46.5673 6.21153ZM9.76882 9.10966C9.93603 9.27719 9.93577 9.54854 9.76824 9.71575L9.72912 9.75487C9.56191 9.9224 9.29056 9.92266 9.12303 9.75546C8.9555 9.58825 8.95524 9.31689 9.12244 9.14936L9.16273 9.10908C9.33026 8.94187 9.60162 8.94213 9.76882 9.10966ZM50.0673 9.10966C50.2345 8.94213 50.5058 8.94187 50.6734 9.10908L50.7136 9.14936C50.8809 9.31689 50.8806 9.58825 50.7131 9.75546C50.5455 9.92266 50.2742 9.9224 50.107 9.75487L50.0679 9.71575C49.9003 9.54854 49.9001 9.27719 50.0673 9.10966ZM6.7623 12.517C6.95354 12.6564 6.99552 12.9245 6.85605 13.1158L6.82351 13.1605C6.68441 13.352 6.41641 13.3945 6.2249 13.2554C6.03338 13.1163 5.99089 12.8483 6.12999 12.6568L6.1635 12.6107C6.30297 12.4195 6.57106 12.3775 6.7623 12.517ZM53.0738 12.517C53.265 12.3775 53.5331 12.4195 53.6726 12.6107L53.7061 12.6568C53.8452 12.8483 53.8027 13.1163 53.6112 13.2554C53.4197 13.3945 53.1517 13.352 53.0126 13.1605L52.98 13.1158C52.8406 12.9245 52.8826 12.6564 53.0738 12.517ZM55.5122 16.3512C55.7229 16.2434 55.9812 16.3268 56.089 16.5375L56.1149 16.5882C56.2223 16.7991 56.1384 17.0572 55.9275 17.1646C55.7166 17.272 55.4585 17.1881 55.3511 16.9772L55.326 16.928C55.2181 16.7173 55.3015 16.459 55.5122 16.3512ZM4.32386 16.3512C4.53456 16.459 4.61796 16.7173 4.51012 16.928L4.48497 16.9772C4.37755 17.1881 4.11949 17.272 3.90857 17.1646C3.69766 17.0572 3.61376 16.7991 3.72119 16.5882L3.7471 16.5375C3.85493 16.3268 4.11316 16.2434 4.32386 16.3512ZM2.51695 20.5205C2.742 20.5939 2.865 20.8357 2.79168 21.0608L2.77457 21.1135C2.70169 21.3387 2.46006 21.4621 2.23486 21.3893C2.00967 21.3164 1.8862 21.0747 1.95908 20.8496L1.9767 20.7953C2.05002 20.5702 2.2919 20.4472 2.51695 20.5205ZM57.3191 20.5205C57.5442 20.4472 57.7861 20.5702 57.8594 20.7953L57.877 20.8496C57.9499 21.0747 57.8264 21.3164 57.6012 21.3893C57.376 21.4621 57.1344 21.3387 57.0615 21.1135L57.0444 21.0608C56.9711 20.8357 57.0941 20.5939 57.3191 20.5205ZM1.38943 24.9229C1.62321 24.9599 1.78276 25.1794 1.74579 25.4131L1.73717 25.468C1.70065 25.7018 1.48147 25.8618 1.24761 25.8253C1.01375 25.7888 0.853774 25.5696 0.890292 25.3357L0.899169 25.2793C0.936143 25.0455 1.15564 24.8859 1.38943 24.9229ZM58.4467 24.9229C58.6805 24.8859 58.9 25.0455 58.9369 25.2793L58.9458 25.3357C58.9823 25.5696 58.8223 25.7888 58.5885 25.8253C58.3546 25.8618 58.1354 25.7018 58.0989 25.468L58.0903 25.4132C58.0533 25.1794 58.2129 24.9599 58.4467 24.9229ZM0.96609 29.4479C1.20278 29.4481 1.39448 29.6402 1.39425 29.8769V29.9325C1.39448 30.1692 1.20278 30.3613 0.96609 30.3615C0.729396 30.3617 0.537335 30.17 0.537109 29.9333V29.876C0.537335 29.6393 0.729396 29.4476 0.96609 29.4479ZM58.87 29.4479C59.1067 29.4476 59.2988 29.6393 59.299 29.876V29.9333C59.2988 30.17 59.1067 30.3617 58.87 30.3615C58.6333 30.3613 58.4416 30.1692 58.4418 29.9325V29.8769C58.4416 29.6402 58.6333 29.4481 58.87 29.4479ZM1.24761 33.9841C1.48147 33.9475 1.70065 34.1075 1.73717 34.3414L1.74579 34.3962C1.78276 34.63 1.62321 34.8495 1.38943 34.8865C1.15564 34.9234 0.936143 34.7639 0.899169 34.5301L0.890292 34.4736C0.853773 34.2398 1.01375 34.0206 1.24761 33.9841ZM58.5885 33.9841C58.8223 34.0206 58.9823 34.2398 58.9458 34.4736L58.9369 34.5301C58.9 34.7639 58.6805 34.9234 58.4467 34.8865C58.2129 34.8495 58.0533 34.63 58.0903 34.3962L58.0989 34.3414C58.1354 34.1075 58.3546 33.9475 58.5885 33.9841ZM2.23486 38.4201C2.46006 38.3472 2.70169 38.4707 2.77458 38.6959L2.79168 38.7486C2.865 38.9736 2.742 39.2155 2.51695 39.2888C2.2919 39.3621 2.05003 39.2391 1.9767 39.0141L1.95908 38.9598C1.8862 38.7346 2.00967 38.493 2.23486 38.4201ZM57.6012 38.4201C57.8264 38.493 57.9499 38.7346 57.877 38.9598L57.8594 39.0141C57.7861 39.2391 57.5442 39.3621 57.3191 39.2888C57.0941 39.2155 56.9711 38.9736 57.0444 38.7486L57.0615 38.6959C57.1344 38.4707 57.376 38.3472 57.6012 38.4201ZM3.90857 42.6447C4.11949 42.5373 4.37755 42.6212 4.48497 42.8321L4.51013 42.8814C4.61796 43.0921 4.53457 43.3503 4.32386 43.4582C4.11316 43.566 3.85493 43.4826 3.7471 43.2719L3.72119 43.2211C3.61377 43.0102 3.69766 42.7522 3.90857 42.6447ZM55.9275 42.6447C56.1384 42.7522 56.2223 43.0102 56.1149 43.2211L56.089 43.2719C55.9812 43.4826 55.7229 43.566 55.5122 43.4582C55.3015 43.3503 55.2181 43.0921 55.326 42.8814L55.3511 42.8321C55.4585 42.6212 55.7166 42.5373 55.9275 42.6447ZM6.22489 46.554C6.41641 46.4149 6.68441 46.4574 6.82351 46.6489L6.85605 46.6936C6.99552 46.8848 6.95354 47.1529 6.7623 47.2924C6.57106 47.4318 6.30297 47.3899 6.1635 47.1986L6.12999 47.1526C5.99089 46.9611 6.03338 46.6931 6.22489 46.554ZM53.6112 46.554C53.8027 46.6931 53.8452 46.9611 53.7061 47.1526L53.6726 47.1986C53.5331 47.3899 53.265 47.4318 53.0738 47.2924C52.8826 47.1529 52.8406 46.8848 52.98 46.6936L53.0126 46.6489C53.1517 46.4574 53.4197 46.4149 53.6112 46.554ZM9.12303 50.0539C9.29056 49.8867 9.56191 49.887 9.72912 50.0545L9.76824 50.0936C9.93577 50.2608 9.93603 50.5322 9.76882 50.6997C9.60162 50.8672 9.33026 50.8675 9.16273 50.7003L9.12244 50.66C8.95524 50.4925 8.9555 50.2211 9.12303 50.0539ZM50.7131 50.0539C50.8806 50.2211 50.8809 50.4925 50.7136 50.66L50.6734 50.7003C50.5058 50.8675 50.2345 50.8672 50.0673 50.6997C49.9001 50.5322 49.9003 50.2608 50.0679 50.0936L50.107 50.0545C50.2742 49.887 50.5455 49.8867 50.7131 50.0539ZM12.5303 53.0604C12.6698 52.8692 12.9379 52.8272 13.1291 52.9667L13.1739 52.9992C13.3654 53.1383 13.4079 53.4063 13.2688 53.5978C13.1297 53.7893 12.8617 53.8318 12.6701 53.6927L12.6241 53.6592C12.4329 53.5198 12.3909 53.2517 12.5303 53.0604ZM47.3058 53.0604C47.4452 53.2517 47.4032 53.5198 47.212 53.6592L47.1659 53.6927C46.9744 53.8318 46.7064 53.7893 46.5673 53.5978C46.4282 53.4063 46.4707 53.1383 46.6622 52.9992L46.707 52.9667C46.8982 52.8272 47.1663 52.8692 47.3058 53.0604ZM16.3646 55.4989C16.4724 55.2882 16.7306 55.2048 16.9413 55.3126L16.9906 55.3378C17.2015 55.4452 17.2854 55.7032 17.178 55.9142C17.0706 56.1251 16.8125 56.209 16.6016 56.1015L16.5508 56.0756C16.3401 55.9678 16.2567 55.7096 16.3646 55.4989ZM43.4715 55.4989C43.5794 55.7096 43.496 55.9678 43.2853 56.0756L43.2345 56.1015C43.0236 56.209 42.7655 56.1251 42.6581 55.9142C42.5507 55.7032 42.6346 55.4452 42.8455 55.3378L42.8948 55.3126C43.1055 55.2048 43.3637 55.2882 43.4715 55.4989ZM20.5339 57.3058C20.6072 57.0807 20.8491 56.9577 21.0742 57.031L21.1268 57.0482C21.352 57.121 21.4755 57.3627 21.4026 57.5879C21.3298 57.8131 21.0881 57.9365 20.8629 57.8637L20.8086 57.846C20.5836 57.7727 20.4606 57.5308 20.5339 57.3058ZM39.3022 57.3058C39.3755 57.5308 39.2525 57.7727 39.0275 57.846L38.9732 57.8636C38.748 57.9365 38.5063 57.8131 38.4335 57.5879C38.3606 57.3627 38.4841 57.121 38.7092 57.0482L38.7619 57.031C38.987 56.9577 39.2289 57.0807 39.3022 57.3058ZM24.9363 58.4333C24.9732 58.1995 25.1927 58.04 25.4265 58.0769L25.4813 58.0856C25.7152 58.1221 25.8752 58.3413 25.8387 58.5751C25.8021 58.809 25.583 58.969 25.3491 58.9324L25.2926 58.9236C25.0588 58.8866 24.8993 58.6671 24.9363 58.4333ZM34.8998 58.4333C34.9368 58.6671 34.7773 58.8866 34.5435 58.9236L34.487 58.9324C34.2531 58.969 34.0339 58.809 33.9974 58.5751C33.9609 58.3413 34.1209 58.1221 34.3547 58.0856L34.4096 58.0769C34.6434 58.04 34.8629 58.1995 34.8998 58.4333ZM29.4612 58.8566C29.4615 58.6199 29.6535 58.4282 29.8902 58.4285H29.9459C30.1826 58.4282 30.3746 58.6199 30.3749 58.8566C30.3751 59.0933 30.1834 59.2854 29.9467 59.2856H29.8894C29.6527 59.2854 29.461 59.0933 29.4612 58.8566Z" fill="white"/>
<path d="M30.8711 58.8571C30.8711 59.3831 30.4447 59.8094 29.9187 59.8094C29.3927 59.8094 28.9663 59.3831 28.9663 58.8571C28.9663 58.3311 29.3927 57.9047 29.9187 57.9047C30.4447 57.9047 30.8711 58.3311 30.8711 58.8571Z" fill="#6966FF"/>
<path d="M58.8703 30.8571C58.3444 30.8571 57.918 30.4307 57.918 29.9047C57.918 29.3788 58.3444 28.9524 58.8704 28.9524C59.3963 28.9524 59.8227 29.3788 59.8227 29.9047C59.8227 30.4307 59.3963 30.8571 58.8703 30.8571Z" fill="#6966FF"/>
<path d="M30.8711 0.952221C30.8711 1.47821 30.4447 1.9046 29.9187 1.9046C29.3927 1.9046 28.9663 1.47821 28.9663 0.952221C28.9663 0.426236 29.3927 -0.000159989 29.9187 -0.000159943C30.4447 -0.000159897 30.8711 0.426236 30.8711 0.952221Z" fill="#6966FF"/>
<path d="M0.966053 30.8571C0.440068 30.8571 0.0136719 30.4307 0.013672 29.9047C0.0136721 29.3788 0.440068 28.9524 0.966053 28.9524C1.49204 28.9524 1.91843 29.3788 1.91843 29.9047C1.91843 30.4307 1.49204 30.8571 0.966053 30.8571Z" fill="#6966FF"/>
<defs>
<linearGradient id="paint0_linear_3121_2938" x1="40.8985" y1="45.0526" x2="28.0995" y2="27.4667" gradientUnits="userSpaceOnUse">
<stop stop-color="#6966FF"/>
<stop offset="1" stop-color="#6966FF" stop-opacity="0.36"/>
</linearGradient>
</defs>
</svg>
